<svg xmlns="http://www.w3.org/2000/svg" xmlns:xlink="http://www.w3.org/1999/xlink" viewBox="0 0 274.22 274.21"><defs><style>.cls-1{fill:url(#Sfumatura_senza_nome_190);}.cls-2{fill:#fff;fill-rule:evenodd;}</style><radialGradient id="Sfumatura_senza_nome_190" cx="137.11" cy="137.11" r="137.11" gradientUnits="userSpaceOnUse"><stop offset="0.45" stop-color="#fff"/><stop offset="0.45" stop-color="#eefcff"/><stop offset="0.47" stop-color="#bef2ff"/><stop offset="0.49" stop-color="#92eaff"/><stop offset="0.52" stop-color="#6ce2ff"/><stop offset="0.54" stop-color="#4cdcff"/><stop offset="0.57" stop-color="#32d7ff"/><stop offset="0.6" stop-color="#1ed3ff"/><stop offset="0.63" stop-color="#10d0ff"/><stop offset="0.67" stop-color="#07ceff"/><stop offset="0.74" stop-color="#05ceff"/><stop offset="0.74" stop-color="#04ceff"/><stop offset="0.75" stop-color="#00cdff"/><stop offset="0.84" stop-color="#02cdff"/><stop offset="0.88" stop-color="#09cfff"/><stop offset="0.9" stop-color="#14d1ff"/><stop offset="0.92" stop-color="#25d4ff"/><stop offset="0.94" stop-color="#3bd9ff"/><stop offset="0.95" stop-color="#57deff"/><stop offset="0.96" stop-color="#77e4ff"/><stop offset="0.98" stop-color="#9decff"/><stop offset="0.99" stop-color="#c8f4ff"/><stop offset="1" stop-color="#f6fdff"/><stop offset="1" stop-color="#fff"/></radialGradient></defs><g id="Livello_2" data-name="Livello 2"><g id="Objects"><path class="cls-1" d="M269.87,167.53h4.35v-59.4H235.36a102.24,102.24,0,0,0-8.25-20l24.36-24.37,3.08-3.07-3.08-3.08L215.62,21.72l-3.08-3.08-3.07,3.08L185,46.17a103.47,103.47,0,0,0-18.94-7.84V0h-59.4V38.33a103.23,103.23,0,0,0-18,7.34l-24-24-3.07-3.08L58.6,21.72,22.74,57.57l-3.07,3.08,3.07,3.07L46.17,87.15a102.71,102.71,0,0,0-8.35,19.53H0v59.4H37.4a102.44,102.44,0,0,0,8.77,21L22.74,210.49l-3.07,3.08,3.07,3.07L58.6,252.5l3.07,3.07,3.07-3.07,24-23.95a102.34,102.34,0,0,0,19.44,7.74v37.92h59.4V235.44A102.05,102.05,0,0,0,185,228l24.45,24.46,3.07,3.07,3.08-3.07,35.85-35.86,3.08-3.07-3.08-3.08-24.36-24.36a102.28,102.28,0,0,0,7.83-18.6ZM198,137.11a61.58,61.58,0,1,1-61.58-61.58A61.64,61.64,0,0,1,198,137.11Z"/><path class="cls-2" d="M131.6,74.47l17.91-45c1.32.41,2.62.83,3.92,1.27l-17.92,45c-1.28-.45-2.59-.87-3.91-1.27Z"/><path class="cls-2" d="M138.06,76.68c1.29.48,2.55,1,3.81,1.53l21.59-43.7c-1.26-.53-2.54-1-3.82-1.53l-21.58,43.7Z"/><path class="cls-2" d="M144.32,79.31c1.25.57,2.47,1.17,3.68,1.79L173.14,39c-1.22-.61-2.44-1.2-3.68-1.78L144.32,79.31Z"/><path class="cls-2" d="M150.36,82.35c1.19.65,2.36,1.33,3.51,2l28.56-40.3c-1.17-.7-2.34-1.37-3.52-2l-28.55,40.3Z"/><path class="cls-2" d="M156.13,85.78l31.81-38.27c1.13.74,2.23,1.5,3.34,2.26L159.47,88c-1.09-.77-2.21-1.53-3.34-2.26Z"/><path class="cls-2" d="M161.6,89.6l34.9-36c1.05.81,2.11,1.64,3.13,2.47l-34.89,36c-1-.84-2.06-1.66-3.14-2.46Z"/><path class="cls-2" d="M166.75,93.75l37.78-33.58q1.49,1.32,2.94,2.67L169.69,96.42q-1.44-1.36-2.94-2.67Z"/><path class="cls-2" d="M171.55,98.24l40.46-31q1.38,1.41,2.7,2.85l-40.46,31c-.87-1-1.78-1.91-2.7-2.84Z"/><path class="cls-2" d="M176,103l42.92-28.16c.84,1,1.66,2,2.48,3l-42.93,28.17c-.8-1-1.63-2-2.47-3Z"/><path class="cls-2" d="M180,108.08l45.16-25.21c.75,1,1.49,2.11,2.21,3.18l-45.14,25.21c-.72-1.07-1.46-2.13-2.23-3.18Z"/><path class="cls-2" d="M183.58,113.4c.67,1.09,1.32,2.19,1.94,3.31l47.14-22.13c-.63-1.11-1.29-2.22-1.95-3.31L183.58,113.4Z"/><path class="cls-2" d="M186.72,118.93c.58,1.14,1.14,2.28,1.67,3.44l48.86-18.93c-.54-1.15-1.09-2.29-1.67-3.43l-48.86,18.92Z"/><path class="cls-2" d="M189.4,124.66c.48,1.17.95,2.34,1.38,3.53l50.32-15.61c-.44-1.18-.9-2.36-1.38-3.52l-50.32,15.6Z"/><path class="cls-2" d="M191.59,130.55l51.51-12.21c.38,1.2.74,2.4,1.08,3.61l-51.49,12.21c-.34-1.21-.7-2.41-1.1-3.61Z"/><path class="cls-2" d="M193.3,136.57l52.39-8.75c.28,1.22.54,2.44.78,3.67l-52.38,8.75c-.23-1.24-.5-2.46-.79-3.67Z"/><path class="cls-2" d="M194.51,142.67c.18,1.24.35,2.47.48,3.72l53-5.23c-.15-1.24-.31-2.49-.49-3.72l-53,5.23Z"/><path class="cls-2" d="M195.21,148.84l53.28-1.68c.08,1.23.14,2.48.18,3.73l-53.29,1.69C195.35,151.33,195.29,150.08,195.21,148.84Z"/><path class="cls-2" d="M142.52,200.79l-17.91,45c-1.32-.41-2.62-.83-3.92-1.27l17.92-45c1.28.45,2.59.87,3.91,1.27Z"/><path class="cls-2" d="M136.06,198.58c-1.28-.48-2.55-1-3.81-1.53l-21.58,43.7c1.25.53,2.53,1,3.81,1.53l21.58-43.7Z"/><path class="cls-2" d="M129.8,196c-1.25-.57-2.47-1.17-3.68-1.79L101,236.28c1.22.61,2.44,1.21,3.68,1.78L129.8,196Z"/><path class="cls-2" d="M123.76,192.9c-1.19-.64-2.36-1.32-3.51-2l-28.56,40.3c1.17.69,2.34,1.37,3.52,2l28.55-40.31Z"/><path class="cls-2" d="M118,189.47,86.18,227.74c-1.12-.73-2.23-1.49-3.34-2.26l31.81-38.27c1.1.78,2.21,1.53,3.34,2.26Z"/><path class="cls-2" d="M112.52,185.66l-34.9,36c-1.05-.8-2.1-1.63-3.13-2.46l34.89-36c1,.84,2.07,1.66,3.14,2.46Z"/><path class="cls-2" d="M107.37,181.51,69.59,215.08c-1-.87-2-1.76-2.94-2.66l37.79-33.58c1,.91,1.93,1.8,2.93,2.67Z"/><path class="cls-2" d="M102.57,177,62.11,208c-.92-.93-1.82-1.88-2.7-2.84l40.46-31q1.32,1.46,2.7,2.85Z"/><path class="cls-2" d="M98.15,172.24,55.23,200.4c-.84-1-1.66-2-2.48-3l42.94-28.17q1.2,1.54,2.46,3Z"/><path class="cls-2" d="M94.14,167.18,49,192.39c-.75-1-1.49-2.11-2.21-3.18L91.92,164c.71,1.08,1.45,2.14,2.22,3.19Z"/><path class="cls-2" d="M90.54,161.86c-.67-1.09-1.32-2.19-1.94-3.31L41.46,180.68c.63,1.11,1.29,2.22,1.95,3.31l47.13-22.13Z"/><path class="cls-2" d="M87.4,156.33c-.58-1.14-1.14-2.28-1.67-3.44L36.87,171.81c.54,1.16,1.09,2.3,1.67,3.44L87.4,156.33Z"/><path class="cls-2" d="M84.72,150.59c-.48-1.16-1-2.33-1.38-3.52L33,162.67c.44,1.19.91,2.36,1.38,3.53l50.32-15.61Z"/><path class="cls-2" d="M82.53,144.71,31,156.92c-.39-1.2-.75-2.4-1.09-3.61l51.5-12.21c.33,1.21.69,2.41,1.09,3.61Z"/><path class="cls-2" d="M80.82,138.69l-52.39,8.75c-.28-1.22-.54-2.45-.78-3.68L80,135c.23,1.23.5,2.46.79,3.67Z"/><path class="cls-2" d="M79.61,132.58c-.18-1.23-.35-2.47-.48-3.71l-53,5.23c.15,1.24.31,2.48.49,3.72l53-5.24Z"/><path class="cls-2" d="M78.91,126.41,25.63,128.1c-.08-1.24-.14-2.49-.18-3.73l53.3-1.69C78.77,123.93,78.83,125.18,78.91,126.41Z"/></g></g></svg>