<svg xmlns="http://www.w3.org/2000/svg" viewBox="0 0 40 40"><defs><style>.cls-1{fill:#f4f4f4;}.cls-1,.cls-2,.cls-3,.cls-4{fill-rule:evenodd;}.cls-2{fill:#fff;}.cls-3{fill:#e7e7e7;}.cls-4{fill:#e31e26;}</style></defs><g id="Livello_2" data-name="Livello 2"><g id="_ëîé_1" data-name="ëîé_1"><path class="cls-1" d="M15.05.63A20,20,0,1,1,.63,25,20,20,0,0,1,15.05.63Z"/><path class="cls-2" d="M18.88,34.93a15.73,15.73,0,0,1-4.15-.56.2.2,0,0,1-.14-.25.2.2,0,0,1,.24-.13,15.24,15.24,0,0,0,7.79.08,15,15,0,0,0,8.21-5.39A15.29,15.29,0,0,0,33,24.91a15.06,15.06,0,0,0,1-6.93.2.2,0,0,1,.18-.21.2.2,0,0,1,.22.18,15.66,15.66,0,0,1-1,7.1,15.93,15.93,0,0,1-2.2,3.87,15.48,15.48,0,0,1-3.67,3.42,15.25,15.25,0,0,1-4.75,2.11A15.6,15.6,0,0,1,18.88,34.93Z"/><path class="cls-2" d="M33.73,15.81a.19.19,0,0,1-.19-.15,15.1,15.1,0,0,0-2.7-5.53.18.18,0,0,1,0-.27.2.2,0,0,1,.28,0,15.31,15.31,0,0,1,2.77,5.67.2.2,0,0,1-.14.24Z"/><path class="cls-3" d="M10.93,35.29A17.87,17.87,0,1,1,32.1,6.57a17.94,17.94,0,0,0-9.72-2.88,17.88,17.88,0,0,0-11.45,31.6Z"/><path class="cls-2" d="M15.57,2.68l.06.21A17.68,17.68,0,0,0,2.89,24.37,17.74,17.74,0,0,0,20,37.67a17.73,17.73,0,0,0,4.39-.56A17.69,17.69,0,0,0,37.11,15.63,17.68,17.68,0,0,0,15.63,2.89l-.06-.21ZM20,38.1a17.54,17.54,0,0,1-2.7-.21A18.16,18.16,0,0,1,5.59,30.94a17.78,17.78,0,0,1-3.12-6.46,18.09,18.09,0,1,1,35.06-9,17.71,17.71,0,0,1,.36,7.17A18.12,18.12,0,0,1,20,38.1Z"/><path class="cls-4" d="M24.48,37.52a18.08,18.08,0,1,1,13-22,18.1,18.1,0,0,1-13,22ZM39.37,15.05A20,20,0,1,0,25,39.37,20,20,0,0,0,39.37,15.05Z"/><path class="cls-4" d="M23,28.82A2.92,2.92,0,1,1,20.12,26,2.87,2.87,0,0,1,23,28.82Z"/><path class="cls-4" d="M22.29,25H18.08L16.59,10a2.16,2.16,0,0,1,2.2-2.34h2.67A2.17,2.17,0,0,1,23.66,10Z"/></g></g></svg>