<svg xmlns="http://www.w3.org/2000/svg" viewBox="0 0 40 40"><defs><style>.cls-1{fill:#f4f4f4;}.cls-1,.cls-2,.cls-3,.cls-4,.cls-5{fill-rule:evenodd;}.cls-2{fill:#fff;}.cls-3{fill:#e7e7e7;}.cls-4{fill:#f0db24;}.cls-5{fill:#efdc24;}</style></defs><g id="Livello_2" data-name="Livello 2"><g id="_ëîé_1" data-name="ëîé_1"><path class="cls-1" d="M15.05.63A20,20,0,1,1,.63,25,20,20,0,0,1,15.05.63Z"/><path class="cls-2" d="M18.77,34.69a16.15,16.15,0,0,1-4.16-.54.19.19,0,0,1-.14-.24.22.22,0,0,1,.25-.13,15.84,15.84,0,0,0,7.8.08,15,15,0,0,0,8.21-5.13,14,14,0,0,0,2.15-3.59,13.79,13.79,0,0,0,1-6.59.19.19,0,0,1,.17-.2.2.2,0,0,1,.22.17,14.13,14.13,0,0,1-1,6.76A15,15,0,0,1,31.05,29a15.28,15.28,0,0,1-3.68,3.26,16,16,0,0,1-4.76,2A16.6,16.6,0,0,1,18.77,34.69Z"/><path class="cls-2" d="M34.27,16.58a.21.21,0,0,1-.2-.16,15.11,15.11,0,0,0-2.73-5.59.2.2,0,1,1,.31-.24,15.47,15.47,0,0,1,2.81,5.74.2.2,0,0,1-.14.24Z"/><path class="cls-3" d="M10.85,35.48A18.08,18.08,0,0,1,16.2,2.78a17.76,17.76,0,0,1,4.48-.57A18.08,18.08,0,0,1,32.27,6.43a18.07,18.07,0,0,0-9.83-2.92A17.62,17.62,0,0,0,18,4.08a18.08,18.08,0,0,0-7.12,31.4Z"/><path class="cls-2" d="M15.52,2.47l.05.21A17.87,17.87,0,1,0,37.32,15.57,17.91,17.91,0,0,0,15.57,2.68l-.05-.21ZM20,38.31a17.91,17.91,0,0,1-2.73-.2,18.44,18.44,0,0,1-11.86-7,18,18,0,0,1-3.16-6.55,18.31,18.31,0,1,1,35.48-9.06,18.1,18.1,0,0,1,.37,7.25,18.44,18.44,0,0,1-7,11.86,18,18,0,0,1-6.55,3.16A18.24,18.24,0,0,1,20,38.31Z"/><path class="cls-4" d="M24.53,37.73a18.3,18.3,0,1,1,13.2-22.26,18.32,18.32,0,0,1-13.2,22.26ZM39.37,15.05A20,20,0,1,0,25,39.37,20,20,0,0,0,39.37,15.05Z"/><path class="cls-5" d="M20.24,29.79H19.8l-.43,0-.45-.06-.42-.08-.41-.1-.43-.1-.39-.14-.4-.17-.38-.16-.37-.19-.37-.21-.34-.21-.34-.24-.32-.27-.33-.28-.28-.28L13.85,27l-.28-.31-.27-.33L13.07,26l-.23-.36-.21-.37-.18-.37-.18-.38-.15-.38L12,23.72l-.12-.43-.1-.41-.08-.42,0-.44,0-.45,0-.44,0-.45,0-.43,0-.43.08-.43.1-.41.12-.42.13-.41.16-.38.17-.39.2-.37.21-.37.23-.35L13.3,16l.25-.32.27-.33.29-.28.31-.29.32-.28.33-.27.34-.23.34-.23.37-.2.37-.19.38-.17.4-.16.39-.13.41-.11.43-.12.42-.06.43-.05.45,0,.44,0,.45,0,.43,0,.43.05.42.06.43.12.41.11.41.13.39.16.37.17.4.19.34.2.37.23.33.23.33.27.3.28.31.29.29.28.27.33.25.32.26.34.2.35.22.37.2.37.17.39.15.38.14.41.11.42.1.41.08.43.05.43,0,.43v.45h0v.44l0,.45-.05.44-.08.42-.1.41-.11.41-.14.4-.15.41-.17.37-.18.38-.21.36-.23.37-.23.32-.26.33-.26.3-.3.32-.3.28-.32.28-.33.24-.33.27-.34.2-.37.22-.37.19-.38.16-.41.17-.38.14-.43.1-.41.1-.42.08-.44.06-.45,0h-.46Zm7.33-16.2.91-.93.13-.13.08-.18,0-.15V12l0-.18,0-.18-.11-.15-.11-.15-.14-.12-.15-.08-.18,0-.17,0h-.17l-.18.06-.17.08-.15.09-1,1.08-.56-.34L25,11.73l-.59-.27-.63-.23L23.13,11l-.65-.16-.64-.11-.67-.08V9.37h2.77V7.52H16.53V9.37h2.78v1.28l-.54.07-.52.08-.52.11-.5.14-.51.16-.48.19-.49.2-.44.23-.45.25-.44.27-.42.29-.38.31-.4.33-.36.34-.37.37-.33.38-.31.4-.3.4-.27.43L11,16l-.24.45-.23.45-.19.47-.15.49-.15.49-.12.51-.1.51-.07.52-.07.52v1.06l0,.55.06.53.09.55.12.52.13.51.16.49.19.49.19.48.24.47.24.45.28.42.28.43.32.39.33.4.34.35.37.36.38.34.4.32.39.28.43.29.45.26.44.23.46.21.49.19.48.18.48.15.51.12.52.1.52.08.52,0,.52,0h.54l.55,0,.54-.05.54-.09.52-.1.51-.14.49-.18.49-.19.47-.19.45-.23.45-.26.44-.26.41-.31.41-.3.38-.32.37-.36.34-.35.36-.4.3-.39.29-.41.3-.42.24-.44.24-.45.22-.46.19-.48.16-.48.17-.49.1-.5.1-.5.08-.52,0-.54,0-.53v-.55l0-.53-.05-.46-.06-.47-.1-.46-.12-.47-.14-.44-.15-.45-.18-.44-.19-.43-.2-.4-.24-.41-.23-.41L28.8,15l-.29-.37-.29-.37-.31-.35-.34-.34Z"/><polygon class="cls-5" points="27.66 21.13 27.66 20.76 27.62 20.38 27.58 20.01 27.52 19.64 27.43 19.27 27.33 18.93 27.21 18.57 27.07 18.24 26.92 17.92 26.77 17.59 26.59 17.27 26.4 16.98 26.18 16.7 25.98 16.41 25.49 15.89 24.97 15.4 24.68 15.19 24.39 14.98 24.08 14.78 23.78 14.61 23.46 14.44 23.13 14.3 22.79 14.17 22.44 14.04 22.09 13.93 21.74 13.85 21.38 13.8 21.01 13.74 20.62 13.72 20.23 13.7 20.23 21.13 27.66 21.13"/></g></g></svg>