<svg xmlns="http://www.w3.org/2000/svg" viewBox="0 0 40 40"><defs><style>.cls-1{fill:#f4f4f4;}.cls-1,.cls-2,.cls-3,.cls-4{fill-rule:evenodd;}.cls-2{fill:#fff;}.cls-3{fill:#e7e7e7;}.cls-4{fill:#2c803c;}</style></defs><g id="Livello_2" data-name="Livello 2"><g id="_ëîé_1" data-name="ëîé_1"><path class="cls-1" d="M15.05.63A20,20,0,1,1,.63,25,20,20,0,0,1,15.05.63Z"/><path class="cls-2" d="M18.88,34.93a15.73,15.73,0,0,1-4.15-.56.2.2,0,0,1-.14-.25.2.2,0,0,1,.24-.13,15.24,15.24,0,0,0,7.79.08,15,15,0,0,0,8.21-5.39A15.29,15.29,0,0,0,33,24.91a15.06,15.06,0,0,0,1-6.93.2.2,0,0,1,.18-.21.2.2,0,0,1,.22.18,15.66,15.66,0,0,1-1,7.1,15.93,15.93,0,0,1-2.2,3.87,15.48,15.48,0,0,1-3.67,3.42,15.25,15.25,0,0,1-4.75,2.11A15.6,15.6,0,0,1,18.88,34.93Z"/><path class="cls-2" d="M33.73,15.81a.19.19,0,0,1-.19-.15,15.1,15.1,0,0,0-2.7-5.53.18.18,0,0,1,0-.27.2.2,0,0,1,.28,0,15.31,15.31,0,0,1,2.77,5.67.2.2,0,0,1-.14.24Z"/><path class="cls-3" d="M10.93,35.29A17.87,17.87,0,1,1,32.1,6.57a17.94,17.94,0,0,0-9.72-2.88,17.88,17.88,0,0,0-11.45,31.6Z"/><path class="cls-2" d="M15.57,2.68l.06.21A17.68,17.68,0,0,0,2.89,24.37,17.74,17.74,0,0,0,20,37.67a17.73,17.73,0,0,0,4.39-.56A17.69,17.69,0,0,0,37.11,15.63,17.68,17.68,0,0,0,15.63,2.89l-.06-.21ZM20,38.1a17.54,17.54,0,0,1-2.7-.21A18.16,18.16,0,0,1,5.59,30.94a17.78,17.78,0,0,1-3.12-6.46,18.09,18.09,0,1,1,35.06-9,17.71,17.71,0,0,1,.36,7.17A18.12,18.12,0,0,1,20,38.1Z"/><path class="cls-4" d="M24.48,37.52a18.08,18.08,0,1,1,13-22,18.1,18.1,0,0,1-13,22ZM39.37,15.05A20,20,0,1,0,25,39.37,20,20,0,0,0,39.37,15.05Z"/><path class="cls-4" d="M13.21,15.72c-1.12.26-2,.19-3.17,1.38a5,5,0,0,0-.83,6,6.52,6.52,0,0,0,.58.8,5.11,5.11,0,0,0,2.61,1.49,14.17,14.17,0,0,0,2.64.09l-.81-1c-1.1-1.3-.57-.21-2.13-.91-3.22-1.44-2-6.13,1-6.13a10.66,10.66,0,0,1,1.75.15c0-1.77.08-2.43.83-3.49a4.06,4.06,0,0,1,2.81-1.52c2.38,0,3.17.9,4.18,2.81A4.65,4.65,0,0,1,24.39,15a2.94,2.94,0,0,1,1.7.53c1.23.81,1.48,1.92,1.48,3.54,1.08,0,2.11-.16,2.89.9a4.52,4.52,0,0,1,.34.57,2.43,2.43,0,0,1-1.52,3.21,5.81,5.81,0,0,1-1.64.09c-.67,0-1,.73-1.4,1.19-.2.26-.32.23-.34.57,1.74,0,4.38.21,5.58-1.32a4.09,4.09,0,0,0-2.4-6.88,4.72,4.72,0,0,0-3.53-3.91,4.4,4.4,0,0,0-2.16,0,5.45,5.45,0,0,0-7.53-1.69A5.79,5.79,0,0,0,13.21,15.72Z"/><path class="cls-4" d="M18.3,22.85H15.11a4.75,4.75,0,0,0,.93,1.2l1.71,2a10.22,10.22,0,0,1,.66.79c.14.18.23.23.36.4l.65.78a5,5,0,0,1,.36.41l.72.79a3.91,3.91,0,0,1,.63-.82l1.67-2a4.48,4.48,0,0,0,.36-.4l1.65-1.91a9.09,9.09,0,0,0,1-1.28H22.55V16.63H18.3Z"/></g></g></svg>